<svg xmlns="http://www.w3.org/2000/svg" viewBox="0 0 312.5 312.5" class="css-1j8o68f"><defs id="SvgjsDefs1254"><linearGradient id="SvgjsLinearGradient1261"><stop id="SvgjsStop1262" stop-color="#7d141d" offset="0"/><stop id="SvgjsStop1263" stop-color="#ff1e27" offset="1"/></linearGradient></defs><g id="SvgjsG1255" featurekey="rootContainer" transform="matrix(2.94811320754717,0,0,2.94811320754717,0,0)" fill="url(#SvgjsLinearGradient1261)"><rect xmlns="http://www.w3.org/2000/svg" width="106" height="106" rx="15" ry="15"/></g><g id="SvgjsG1256" featurekey="symbolFeature-0" transform="matrix(1.2,0,0,1.2,120,96)" fill="#ffe6eb"><title xmlns="http://www.w3.org/2000/svg">85 -Forklift- (Outline)</title><desc xmlns="http://www.w3.org/2000/svg">Created with Sketch.</desc><g xmlns="http://www.w3.org/2000/svg" stroke="none" stroke-width="1" fill="none" fill-rule="evenodd"><g transform="translate(-600.000000, -1362.000000)" fill="#ffe6eb"><g transform="translate(600.000000, 1362.000000)"><path d="M8,50 C6.895,50 6,50.895 6,52 C6,53.104 6.895,54 8,54 C9.105,54 10,53.104 10,52 C10,50.895 9.105,50 8,50"/><path d="M37.998,44 C37.997,43.328 37.995,42.663 37.992,42 L41,42 L41,44 L37.998,44 Z M36,51.93 C36,53.071 35.071,54 33.93,54 L32.899,54 L32.899,53.997 C32.895,53.979 32.887,53.963 32.883,53.945 C32.821,53.657 32.733,53.379 32.624,53.112 C32.585,53.017 32.533,52.93 32.488,52.838 C32.399,52.655 32.308,52.474 32.198,52.304 C32.134,52.205 32.062,52.115 31.991,52.021 C31.88,51.871 31.764,51.727 31.637,51.591 C31.553,51.502 31.466,51.419 31.376,51.336 C31.242,51.212 31.102,51.097 30.954,50.988 C30.856,50.915 30.758,50.845 30.654,50.779 C30.495,50.679 30.33,50.593 30.16,50.511 C30.054,50.459 29.95,50.405 29.84,50.361 C29.648,50.285 29.448,50.229 29.245,50.176 C29.146,50.15 29.051,50.116 28.95,50.096 C28.642,50.036 28.325,50 28,50 C27.675,50 27.358,50.036 27.05,50.096 C26.949,50.116 26.854,50.15 26.754,50.176 C26.552,50.229 26.352,50.285 26.16,50.361 C26.05,50.405 25.946,50.459 25.84,50.511 C25.67,50.593 25.505,50.679 25.346,50.779 C25.242,50.845 25.144,50.915 25.046,50.988 C24.898,51.097 24.758,51.212 24.624,51.336 C24.534,51.419 24.447,51.502 24.363,51.591 C24.236,51.727 24.12,51.871 24.008,52.021 C23.938,52.115 23.866,52.205 23.802,52.304 C23.692,52.474 23.601,52.655 23.512,52.838 C23.467,52.93 23.415,53.017 23.376,53.112 C23.266,53.379 23.179,53.657 23.117,53.945 C23.113,53.963 23.105,53.979 23.101,53.997 L23.101,54 L15.744,54 C15.753,53.964 15.756,53.927 15.765,53.891 C15.822,53.656 15.868,53.418 15.904,53.176 C15.916,53.095 15.931,53.016 15.941,52.935 C15.976,52.628 16,52.317 16,52 C16,51.741 15.985,51.486 15.961,51.232 C15.955,51.166 15.944,51.101 15.936,51.035 C15.913,50.843 15.885,50.652 15.848,50.463 C15.836,50.403 15.823,50.343 15.81,50.283 C15.766,50.082 15.715,49.884 15.656,49.689 C15.645,49.65 15.633,49.611 15.621,49.572 C15.548,49.342 15.465,49.116 15.372,48.895 C15.371,48.892 15.37,48.889 15.369,48.887 C15.083,48.21 14.71,47.574 14.247,47 L33,47 L36,47 L36,49 L36,51.93 Z M8,58 C4.691,58 2,55.309 2,52 C2,51.695 2.03,51.395 2.075,51.1 C2.082,51.054 2.088,51.007 2.096,50.962 C2.149,50.665 2.221,50.374 2.316,50.092 C2.32,50.081 2.325,50.07 2.328,50.059 C2.535,49.463 2.832,48.904 3.208,48.404 C3.212,48.399 3.216,48.393 3.22,48.388 C3.789,47.636 4.534,47.019 5.401,46.6 C5.417,46.593 5.434,46.584 5.45,46.577 C5.737,46.442 6.036,46.326 6.348,46.237 L6.348,46.237 C6.385,46.226 6.423,46.218 6.461,46.208 C6.657,46.156 6.858,46.114 7.113,46.073 C7.132,46.07 7.151,46.067 7.17,46.064 L7.242,46.054 C7.739,45.991 8.262,45.991 8.757,46.054 L8.935,46.081 C9.149,46.114 9.359,46.159 9.652,46.237 C10.141,46.376 10.615,46.583 11.061,46.849 C11.071,46.855 11.082,46.862 11.092,46.868 C11.313,47.001 11.523,47.146 11.721,47.302 C11.724,47.304 11.728,47.307 11.731,47.309 C11.926,47.464 12.109,47.629 12.281,47.804 C12.317,47.841 12.35,47.88 12.385,47.918 C12.501,48.042 12.612,48.171 12.716,48.303 C12.776,48.379 12.834,48.457 12.89,48.536 C12.964,48.64 13.033,48.747 13.1,48.855 C13.155,48.943 13.212,49.03 13.262,49.121 C13.36,49.301 13.451,49.484 13.53,49.673 C13.567,49.761 13.596,49.852 13.629,49.942 C13.676,50.071 13.721,50.2 13.759,50.332 C13.786,50.424 13.809,50.517 13.831,50.61 C13.865,50.756 13.894,50.905 13.918,51.054 C13.931,51.134 13.945,51.212 13.954,51.292 C13.982,51.526 14,51.761 14,52 C14,52.217 13.987,52.431 13.964,52.645 C13.96,52.685 13.951,52.723 13.946,52.762 C13.923,52.94 13.896,53.116 13.856,53.291 C13.85,53.32 13.841,53.348 13.834,53.377 C13.789,53.564 13.738,53.75 13.674,53.934 C13.669,53.948 13.664,53.962 13.659,53.976 C13.59,54.172 13.511,54.365 13.421,54.555 C12.459,56.587 10.394,58 8,58 L8,58 Z M2,46.724 L2,41 L11,41 L23,41 L31.957,41 C31.979,42.281 31.994,43.612 31.998,45 L11.864,45 C11.348,44.714 10.797,44.487 10.219,44.32 C10.213,44.318 10.207,44.315 10.201,44.313 L10.201,44.315 C10.162,44.304 10.122,44.295 10.083,44.285 L10.083,44.282 C10.039,44.27 9.992,44.261 9.947,44.25 C9.727,44.195 9.505,44.149 9.28,44.112 C9.25,44.107 9.225,44.102 9.194,44.097 L9.006,44.069 L8.995,44.069 C8.668,44.028 8.337,44 8,44 C7.663,44 7.332,44.028 7.006,44.069 L6.993,44.069 L6.757,44.104 C6.745,44.106 6.733,44.11 6.721,44.112 C6.454,44.155 6.191,44.211 5.933,44.281 C5.912,44.286 5.896,44.287 5.875,44.293 C5.866,44.296 5.814,44.31 5.798,44.313 C5.793,44.315 5.787,44.318 5.782,44.32 C5.422,44.424 5.072,44.552 4.735,44.704 C4.709,44.716 4.685,44.729 4.66,44.74 C4.347,44.885 4.046,45.048 3.756,45.23 C3.732,45.246 3.706,45.26 3.681,45.276 C3.374,45.475 3.081,45.692 2.804,45.929 C2.799,45.934 2.794,45.939 2.788,45.944 C2.516,46.178 2.262,46.432 2.024,46.7 C2.016,46.708 2.007,46.715 2,46.724 L2,46.724 Z M13.131,6 L10.947,24.001 C10.876,24.005 10.814,24.033 10.748,24.051 C10.697,24.064 10.643,24.068 10.595,24.089 C10.526,24.12 10.471,24.168 10.411,24.213 C10.37,24.244 10.322,24.266 10.285,24.304 C10.23,24.361 10.193,24.432 10.152,24.501 C10.129,24.541 10.095,24.574 10.077,24.617 C10.028,24.735 10,24.864 10,25 L10,31 L7.463,31 C7.542,30.865 7.609,30.725 7.67,30.583 C7.675,30.571 7.682,30.561 7.687,30.549 C7.778,30.334 7.843,30.11 7.895,29.882 C7.907,29.828 7.917,29.774 7.927,29.719 C7.97,29.483 8,29.244 8,29 C8,28.747 7.974,28.496 7.924,28.248 C7.876,27.999 7.803,27.761 7.712,27.531 L11.085,6 L13.131,6 Z M20.248,33 L19.475,33 C18.662,33 18,32.339 18,31.525 L18,27.752 C18,25.684 16.317,24 14.248,24 L12.962,24 L15.145,6 L26,6 C26.382,6 27.526,6.858 29.906,14.813 C31.412,19.845 31.837,26.521 31.955,35.951 L27.233,27.181 L28.707,25.707 C29.098,25.316 29.098,24.684 28.707,24.293 C28.316,23.902 27.684,23.902 27.293,24.293 L23.293,28.293 C22.902,28.684 22.902,29.316 23.293,29.707 C23.488,29.902 23.744,30 24,30 C24.256,30 24.512,29.902 24.707,29.707 L25.757,28.657 L31.326,39 L24,39 L24,36.752 C24,34.684 22.317,33 20.248,33 L20.248,33 Z M2,39 L2,36.088 C2,34.385 3.385,33 5.088,33 L6,33 L10,33 L10,39 L2,39 Z M9,2 L28,2 C35.272,2 35.98,23.09 35.999,45 L34,45 C33.999,43.24 33.996,41.57 33.989,39.97 C33.988,39.941 33.992,39.913 33.989,39.884 C33.934,27.875 33.612,20.221 31.822,14.238 C29.532,6.584 28.062,4 26,4 L14.259,4 L10.23,4 L9,4 L9,2 Z M57,54 L47,54 L47,3 C47,1.346 45.654,0 44,0 C42.346,0 41,1.346 41,3 L41,36 L37.942,36 C37.654,15.008 36.036,0 28,0 L8,0 C7.448,0 7,0.447 7,1 L7,5 C7,5.553 7.448,6 8,6 L9.061,6 L5.998,25.555 C5.407,25.211 4.731,25 4,25 C1.794,25 0,26.794 0,29 C0,30.365 0.689,31.569 1.735,32.291 C0.68,33.224 0,34.572 0,36.088 L0,40 L0,52 C0,56.411 3.589,60 8,60 C10.953,60 13.532,58.387 14.917,56 L23.101,56 C23.566,58.279 25.586,60 28,60 C30.414,60 32.434,58.279 32.899,56 L33.93,56 C36.174,56 38,54.174 38,51.93 L38,50 L41,50 L41,59 C41,59.553 41.448,60 42,60 L57,60 C58.654,60 60,58.654 60,57 C60,55.346 58.654,54 57,54 L57,54 Z"/><path d="M49,38 L60,38 L60,34 L49,34 L49,38 Z"/><path d="M49,26 L60,26 L60,22 L49,22 L49,26 Z"/><path d="M49,32 L60,32 L60,28 L49,28 L49,32 Z"/><path d="M49,44 L60,44 L60,40 L49,40 L49,44 Z"/><path d="M49,51 C49,51.553 49.447,52 50,52 L59,52 C59.553,52 60,51.553 60,51 L60,46 L49,46 L49,51 Z"/><path d="M59,14 L50,14 C49.447,14 49,14.447 49,15 L49,20 L60,20 L60,15 C60,14.447 59.553,14 59,14"/></g></g></g></g><g id="SvgjsG1257" featurekey="nameFeature-0" transform="matrix(0.9574824942699488,0,0,0.9574824942699488,55.99999863031031,178.69326898689422)" fill="#ffe6eb"><path d="M17.12 40 l0 -21 l-5.4 13.28 l-3.12 -0.04 l-5.24 -13.16 l0 20.92 l-3.36 0 l0 -30 l3.24 0 l6.96 17.24 l7.04 -17.24 l3.24 0 l0 30 l-3.36 0 z M33.451 26.36 l0 13.64 l-3.52 0 l0 -13.64 l-6.96 -16.36 l3.88 0 l4.8 11.92 l4.88 -11.92 l3.88 0 z M64.753 32.08 c-0.02668 1.36 -0.15992 2.5533 -0.39992 3.58 s-0.63332 1.8867 -1.18 2.58 s-1.2734 1.22 -2.18 1.58 s-2.04 0.54 -3.4 0.54 c-2.3733 0 -4.1132 -0.71332 -5.22 -2.14 s-1.66 -3.4867 -1.66 -6.18 l0 -14 c0 -2.7467 0.56 -4.82 1.68 -6.22 s2.9733 -2.1 5.56 -2.1 c2.4 0 4.12 0.71332 5.16 2.14 s1.5867 3.4734 1.64 6.14 l0.04 2.56 l-3.12 0 l-0.04 -3 c0 -0.58668 -0.05332 -1.1667 -0.16 -1.74 s-0.29336 -1.0733 -0.56004 -1.5 s-0.64 -0.77336 -1.12 -1.04 s-1.12 -0.4 -1.92 -0.4 c-1.5733 0 -2.6333 0.46 -3.18 1.38 s-0.82 2.18 -0.82 3.78 l0.04 14.2 c0 1.6267 0.26 2.8334 0.78 3.62 s1.4867 1.18 2.9 1.18 c0.8 0 1.46 -0.10668 1.98 -0.32 s0.93332 -0.52 1.24 -0.92 s0.52 -0.89332 0.64 -1.48 s0.18 -1.2534 0.18 -2 l0.04 -3.24 l3.12 0 z M81.56400000000001 40 l-2.04 -8.36 l-7.76 0 l-2.04 8.36 l-3.4 0 l8 -30 l2.76 0 l7.96 30 l-3.48 0 z M75.76400000000001 15.8 l-3.16 12.44 l6.08 0 z M101.17500000000001 40 l-6 -11.8 l-4.36 0 l0 11.8 l-3.32 0 l0 -30 l6.96 0 c1.5733 0 2.92 0.24668 4.04 0.74 s2.04 1.16 2.76 2 s1.2533 1.8 1.6 2.88 s0.52 2.2067 0.52 3.38 c0 0.93332 -0.11332 1.84 -0.34 2.72 s-0.55336 1.6933 -0.98004 2.44 s-0.92668 1.42 -1.5 2.02 s-1.1933 1.0733 -1.86 1.42 l6.68 12.4 l-4.2 0 z M94.215 13.32 l-3.4 0.000039062 l0 11.4 l3.64 0 c1.0933 0 1.9933 -0.16668 2.7 -0.5 s1.26 -0.77332 1.66 -1.32 s0.68 -1.1734 0.84 -1.88 s0.24 -1.4467 0.24 -2.22 s-0.12668 -1.4933 -0.38 -2.16 s-0.62 -1.2467 -1.1 -1.74 s-1.0733 -0.88 -1.78 -1.16 s-1.5134 -0.42 -2.42 -0.42 z M113.74600000000001 40.36 c-2.5067 0 -4.3932 -0.71332 -5.66 -2.14 s-1.9 -3.4867 -1.9 -6.18 l0 -14 c0 -2.7467 0.64 -4.82 1.92 -6.22 s3.2933 -2.1 6.04 -2.1 c2.5867 0 4.5068 0.70668 5.76 2.12 s1.88 3.4533 1.88 6.12 l0 2.8 l-3.48 0 l0 -3.2 c0 -0.58668 -0.06 -1.16 -0.18 -1.72 s-0.34 -1.06 -0.66 -1.5 s-0.75332 -0.79332 -1.3 -1.06 s-1.2467 -0.4 -2.1 -0.4 s-1.5666 0.12 -2.14 0.36 s-1.0333 0.58 -1.38 1.02 s-0.58668 0.98 -0.72 1.62 s-0.2 1.36 -0.2 2.16 l0 14.16 c0 1.6267 0.3 2.84 0.9 3.64 s1.7 1.2 3.3 1.2 c1.76 0 2.96 -0.42 3.6 -1.26 s0.96 -1.9933 0.96 -3.46 l0 -4.8 l-5.64 -0.04 l0 -3.4 l9.04 0.04 l0 7.92 c0 2.72 -0.62 4.7868 -1.86 6.2 s-3.3 2.12 -6.18 2.12 z M133.197 40.36 c-2.5067 0 -4.3932 -0.70668 -5.66 -2.12 s-1.9 -3.48 -1.9 -6.2 l0 -14 c0 -2.7467 0.64 -4.82 1.92 -6.22 s3.32 -2.1 6.12 -2.1 c2.56 0 4.4668 0.70668 5.72 2.12 s1.88 3.4533 1.88 6.12 l0 14.08 c0 2.7467 -0.61332 4.82 -1.84 6.22 s-3.3067 2.1 -6.24 2.1 z M137.837 17.92 c0 -0.58668 -0.07328 -1.1667 -0.21996 -1.74 s-0.38 -1.0866 -0.7 -1.54 s-0.74668 -0.82 -1.28 -1.1 s-1.2 -0.42 -2 -0.42 c-0.90668 0 -1.6534 0.12 -2.24 0.36 s-1.0534 0.59332 -1.4 1.06 s-0.58668 1.02 -0.72 1.66 s-0.2 1.36 -0.2 2.16 l0 13.48 c0 0.61332 0.06668 1.22 0.2 1.82 s0.35332 1.14 0.66 1.62 s0.72668 0.86668 1.26 1.16 s1.2 0.44 2 0.44 c0.90668 0 1.66 -0.11332 2.26 -0.34 s1.0733 -0.55336 1.42 -0.98004 s0.59336 -0.94668 0.74004 -1.56 s0.22 -1.2933 0.22 -2.04 l0 -14.04 z M168.09900000000002 40 l-2.04 -8.36 l-7.76 0 l-2.04 8.36 l-3.4 0 l8 -30 l2.76 0 l7.96 30 l-3.48 0 z M162.299 15.8 l-3.16 12.44 l6.08 0 z M180.91 29.28 l-3.1599 0 l0 10.72 l-3.6 0 l0 -30 l7.32 0 c2.64 0 4.7 0.85332 6.18 2.56 s2.22 4.1068 2.22 7.2 c0 1.3867 -0.21332 2.66 -0.64 3.82 s-1.0334 2.16 -1.82 3 s-1.7334 1.5 -2.84 1.98 s-2.3267 0.72 -3.66 0.72 z M180.75 13.52 l-3 0.00011719 l0 12.16 l2.6 0 c1.12 0 2.0533 -0.16 2.8 -0.48 s1.3467 -0.75332 1.8 -1.3 s0.78 -1.18 0.98 -1.9 s0.3 -1.4933 0.3 -2.32 c0 -0.90668 -0.07332 -1.7334 -0.22 -2.48 s-0.42 -1.3934 -0.82 -1.94 s-0.96 -0.97336 -1.68 -1.28 s-1.64 -0.46 -2.76 -0.46 z M199.921 29.28 l-3.1599 0 l0 10.72 l-3.6 0 l0 -30 l7.32 0 c2.64 0 4.7 0.85332 6.18 2.56 s2.22 4.1068 2.22 7.2 c0 1.3867 -0.21332 2.66 -0.64 3.82 s-1.0334 2.16 -1.82 3 s-1.7334 1.5 -2.84 1.98 s-2.3267 0.72 -3.66 0.72 z M199.761 13.52 l-3 0.00011719 l0 12.16 l2.6 0 c1.12 0 2.0533 -0.16 2.8 -0.48 s1.3467 -0.75332 1.8 -1.3 s0.78 -1.18 0.98 -1.9 s0.3 -1.4933 0.3 -2.32 c0 -0.90668 -0.07332 -1.7334 -0.22 -2.48 s-0.42 -1.3934 -0.82 -1.94 s-0.96 -0.97336 -1.68 -1.28 s-1.64 -0.46 -2.76 -0.46 z"/></g></svg>