<svg id="visual" viewBox="0 0 960 540" width="960" height="540" xmlns="http://www.w3.org/2000/svg" xmlns:xlink="http://www.w3.org/1999/xlink" version="1.1"><rect x="0" y="0" width="960" height="540" fill="#ffffff"></rect><path d="M0 260L22.8 268.7C45.7 277.3 91.3 294.7 137 297.7C182.7 300.7 228.3 289.3 274 292.5C319.7 295.7 365.3 313.3 411.2 323.2C457 333 503 335 548.8 319.5C594.7 304 640.3 271 686 272.5C731.7 274 777.3 310 823 325C868.7 340 914.3 334 937.2 331L960 328L960 541L937.2 541C914.3 541 868.7 541 823 541C777.3 541 731.7 541 686 541C640.3 541 594.7 541 548.8 541C503 541 457 541 411.2 541C365.3 541 319.7 541 274 541C228.3 541 182.7 541 137 541C91.3 541 45.7 541 22.8 541L0 541Z" fill="#ffffff"></path><path d="M0 299L22.8 315.7C45.7 332.3 91.3 365.7 137 368.5C182.7 371.3 228.3 343.7 274 334.8C319.7 326 365.3 336 411.2 345.7C457 355.3 503 364.7 548.8 364.8C594.7 365 640.3 356 686 358.7C731.7 361.3 777.3 375.7 823 381.7C868.7 387.7 914.3 385.3 937.2 384.2L960 383L960 541L937.2 541C914.3 541 868.7 541 823 541C777.3 541 731.7 541 686 541C640.3 541 594.7 541 548.8 541C503 541 457 541 411.2 541C365.3 541 319.7 541 274 541C228.3 541 182.7 541 137 541C91.3 541 45.7 541 22.8 541L0 541Z" fill="#ffcfbf"></path><path d="M0 414L22.8 406.8C45.7 399.7 91.3 385.3 137 373.2C182.7 361 228.3 351 274 347.3C319.7 343.7 365.3 346.3 411.2 348.7C457 351 503 353 548.8 356C594.7 359 640.3 363 686 369.7C731.7 376.3 777.3 385.7 823 394.5C868.7 403.3 914.3 411.7 937.2 415.8L960 420L960 541L937.2 541C914.3 541 868.7 541 823 541C777.3 541 731.7 541 686 541C640.3 541 594.7 541 548.8 541C503 541 457 541 411.2 541C365.3 541 319.7 541 274 541C228.3 541 182.7 541 137 541C91.3 541 45.7 541 22.8 541L0 541Z" fill="#ff9f82"></path><path d="M0 395L22.8 394.7C45.7 394.3 91.3 393.7 137 397.2C182.7 400.7 228.3 408.3 274 408.7C319.7 409 365.3 402 411.2 400.3C457 398.7 503 402.3 548.8 404.2C594.7 406 640.3 406 686 409.5C731.7 413 777.3 420 823 422.3C868.7 424.7 914.3 422.3 937.2 421.2L960 420L960 541L937.2 541C914.3 541 868.7 541 823 541C777.3 541 731.7 541 686 541C640.3 541 594.7 541 548.8 541C503 541 457 541 411.2 541C365.3 541 319.7 541 274 541C228.3 541 182.7 541 137 541C91.3 541 45.7 541 22.8 541L0 541Z" fill="#ff6b46"></path><path d="M0 446L22.8 447C45.7 448 91.3 450 137 453.8C182.7 457.7 228.3 463.3 274 470.2C319.7 477 365.3 485 411.2 481C457 477 503 461 548.8 456.8C594.7 452.7 640.3 460.3 686 466.8C731.7 473.3 777.3 478.7 823 479.8C868.7 481 914.3 478 937.2 476.5L960 475L960 541L937.2 541C914.3 541 868.7 541 823 541C777.3 541 731.7 541 686 541C640.3 541 594.7 541 548.8 541C503 541 457 541 411.2 541C365.3 541 319.7 541 274 541C228.3 541 182.7 541 137 541C91.3 541 45.7 541 22.8 541L0 541Z" fill="#ff1100"></path></svg>